<svg width="40" height="41" viewBox="0 0 40 41" fill="none" xmlns="http://www.w3.org/2000/svg">
<g clip-path="url(#clip0_345_218)">
<path d="M0 26.335V15.7085C0.132609 15.7085 0.208834 15.7993 0.28297 15.8912C0.844036 16.5532 1.4058 17.2145 1.96826 17.8751C2.76078 18.7982 3.53451 19.7379 4.36358 20.6286C4.60687 20.8907 4.73008 21.3512 5.21771 21.3366C5.25426 23.1816 5.19578 25.0287 5.38895 26.8707C5.61867 29.0634 6.24622 31.0734 7.95343 32.6136C8.21017 32.8624 8.49264 33.0833 8.79607 33.2725C10.4532 34.2174 12.2648 34.5923 14.1506 34.7144C15.0339 34.7708 15.9173 34.752 16.7996 34.8105C16.7912 34.874 16.7961 34.9386 16.8141 35.0001C16.8321 35.0616 16.8627 35.1187 16.904 35.1676C17.3969 35.7283 17.8793 36.2995 18.3659 36.8633C19.1198 37.7279 19.8862 38.582 20.6275 39.4571C20.7591 39.6126 20.9648 39.7578 20.9324 40.0157H11.7991C11.8179 39.8737 11.7438 39.7766 11.6571 39.6711C11.1642 39.0707 10.6505 38.4891 10.1368 37.9065C9.1772 36.8143 8.24893 35.7106 7.29769 34.609C6.73071 33.9533 6.14911 33.3059 5.58735 32.6501C4.65734 31.5725 3.73012 30.4936 2.80568 29.4132C2.19902 28.7063 1.61115 27.9827 0.976297 27.3029C0.665135 26.9699 0.473008 26.5073 0 26.335Z" fill="#1A2023"/>
<path d="M0 26.3352C0.473008 26.5075 0.665135 26.9701 0.976297 27.3031C1.61115 27.9829 2.19902 28.7065 2.80568 29.4134C3.7329 30.4917 4.66012 31.5707 5.58735 32.6503C6.15328 33.3061 6.73071 33.9535 7.29769 34.6092C8.24893 35.7108 9.1772 36.8145 10.1357 37.9035C10.6495 38.4862 11.1632 39.0678 11.6561 39.6682C11.7427 39.7726 11.8169 39.8708 11.7981 40.0128H11.3292C11.2822 39.9282 11.1987 39.9428 11.1204 39.9397L7.93568 39.7736C6.46191 39.708 5.03264 39.2487 3.7966 38.4434C1.71661 37.0985 0.805054 35.0404 0.313251 32.7266C0.192127 32.1617 0.192127 31.578 0 31.0235V26.3352Z" fill="#1A2023"/>
<path d="M28.7532 40.0084C28.842 39.8685 28.983 39.9426 29.0999 39.9322C29.4528 39.9029 29.8099 39.9437 30.1597 39.858C30.4845 39.8518 30.8103 39.8664 31.1329 39.8351C31.9829 39.7536 32.8474 39.7881 33.6765 39.5302C34.6775 39.2954 35.616 38.8474 36.4279 38.2166C37.0147 37.8511 37.4794 37.3573 37.9033 36.8185C38.3983 36.2619 38.7907 35.622 39.0623 34.9285C39.6466 33.6831 39.9482 32.3238 39.9457 30.9481C40.0334 29.62 39.9916 28.2897 39.9833 26.9605C39.9833 25.6831 39.9833 24.4064 39.9833 23.1305V21.0192C39.9833 19.2496 39.9833 17.4794 39.9833 15.7085V12.4225C39.9833 11.4347 39.9833 10.4466 39.9833 9.45812C39.9891 8.34198 39.8232 7.23158 39.4915 6.16586C38.5695 3.24741 36.6565 1.32405 33.7057 0.463658C32.2418 0.0386818 30.7351 0.0104893 29.2252 0.0251076L26.3297 0.0167543H13.0521C11.6613 4.7577e-05 10.2746 -0.0417192 8.89318 0.123259C8.13198 0.177556 7.37391 0.246471 6.63673 0.462614C5.97871 0.561177 5.34278 0.773154 4.75723 1.08912C3.56061 1.6112 2.63339 2.46324 1.86071 3.49697C1.29322 4.16354 0.875214 4.94401 0.634854 5.78578C0.478565 6.15498 0.370475 6.54278 0.31325 6.93959C0.198392 7.56609 0.104417 8.20199 0 8.83267" fill="#1A2023"/>
<path d="M0 8.83268C0.104417 8.20618 0.198392 7.56819 0.313251 6.9396C0.370912 6.54456 0.478995 6.15856 0.634854 5.79102C0.919912 5.85367 1.01806 6.11471 1.18409 6.30683C2.51784 7.8522 3.85368 9.39548 5.19161 10.9367C5.32108 11.0849 5.43803 11.2865 5.69072 11.2604C5.68028 11.323 5.67401 11.3878 5.65939 11.4494C5.43664 12.393 5.2993 13.3547 5.24903 14.3229C5.18116 15.4861 5.22084 16.6556 5.21353 17.8219C5.02976 17.848 4.92639 17.7175 4.8251 17.6058C4.01065 16.6879 3.19411 15.7722 2.38906 14.8471C1.81268 14.1851 1.27075 13.4897 0.672444 12.8527C0.477185 12.6439 0.402005 12.2544 0 12.2763L0 8.83268Z" fill="#1A2023"/>
<path d="M30.1597 39.8582C29.8099 39.9438 29.4528 39.9031 29.0999 39.9323C28.983 39.9427 28.842 39.8686 28.7532 40.0085H23.9877C24.0148 39.8289 23.8958 39.7266 23.7893 39.6107C23.5331 39.3371 23.2822 39.0587 23.0364 38.7754C22.0486 37.6351 21.0623 36.4935 20.0773 35.3505C19.9373 35.1876 19.764 35.0372 19.7703 34.7887C21.8534 34.7511 23.9375 34.8451 26.0196 34.7073C26.0115 34.7775 26.0185 34.8487 26.0401 34.9161C26.0617 34.9834 26.0975 35.0454 26.1449 35.0978C27.1839 36.284 28.228 37.466 29.2419 38.673C29.5614 39.0521 29.9676 39.3799 30.1597 39.8582Z" fill="#1A2023"/>
<path d="M0 12.2712C0.402005 12.2492 0.477185 12.6387 0.672444 12.8475C1.27075 13.4876 1.81268 14.1799 2.38906 14.8419C3.19411 15.767 4.01065 16.6828 4.8251 17.6006C4.92952 17.7154 5.03394 17.8428 5.21353 17.8167C5.21353 18.9897 5.21353 20.1623 5.21353 21.3345C4.72591 21.3492 4.60269 20.8887 4.3594 20.6266C3.53555 19.7349 2.76078 18.7951 1.96826 17.8731C1.40441 17.2146 0.842644 16.5533 0.28297 15.8892C0.205701 15.7973 0.132609 15.7096 0 15.7065L0 12.2712Z" fill="#1A2023"/>
<path d="M7.93568 39.7734L11.1256 39.9353C11.2008 39.9353 11.2843 39.9238 11.3345 40.0084" fill="#1A2023"/>
<path d="M19.7703 34.7908C19.764 35.0372 19.9374 35.1896 20.0773 35.3525C21.0609 36.4962 22.0473 37.6379 23.0365 38.7774C23.2815 39.0558 23.5324 39.3343 23.7893 39.6127C23.8937 39.7286 24.0148 39.8309 23.9877 40.0105H20.9398C20.9721 39.7526 20.7664 39.6075 20.6349 39.4519C19.8935 38.5769 19.1271 37.7228 18.3732 36.8582C17.8824 36.2944 17.4 35.7232 16.9114 35.1625C16.87 35.1135 16.8394 35.0565 16.8214 34.995C16.8034 34.9335 16.7985 34.8689 16.8069 34.8054L19.7703 34.7908Z" fill="#1A2023"/>
<path d="M19.7703 34.7906L16.7996 34.8032C15.9173 34.7447 15.0339 34.7635 14.1506 34.7071C12.2648 34.5849 10.4532 34.2101 8.79607 33.2651C8.49264 33.076 8.21017 32.8551 7.95343 32.6062C6.24621 31.0692 5.61867 29.0623 5.38895 26.8633C5.19578 25.0235 5.25425 23.1764 5.21771 21.3292C5.21771 20.157 5.21771 18.9844 5.21771 17.8114C5.22502 16.6451 5.18534 15.4756 5.25321 14.3124C5.30241 13.3461 5.43835 12.3861 5.65939 11.4441C5.67401 11.3825 5.68028 11.3177 5.69072 11.2551C5.92876 10.4693 6.24608 9.70978 6.63778 8.9882C6.98549 8.35126 7.48355 7.83962 8.02235 7.36974C8.40763 7.02018 8.83441 6.71929 9.2931 6.47384L11.0128 5.7753L13.2056 5.3806L16.1763 5.22084H20.779H22.2721C22.8579 5.21458 23.4458 5.30542 24.0274 5.16968C24.0514 5.23024 24.0994 5.22606 24.1495 5.21667L25.674 5.25739C25.7608 5.28046 25.8491 5.29756 25.9382 5.30855C26.9636 5.34511 27.9806 5.50783 28.9663 5.79305C31.9338 6.70356 33.7068 8.70523 34.3803 11.7218C34.6455 12.9091 34.6779 14.1172 34.7719 15.32L34.7802 17.588V21.2614C34.7562 22.7963 34.7865 24.3333 34.7092 25.8672C34.639 27.1135 34.4221 28.3472 34.0629 29.5427C33.7925 30.1877 33.4705 30.81 33.1001 31.4034C32.6867 31.9456 32.2189 32.4442 31.7041 32.8913C30.9626 33.4147 30.1495 33.8286 29.29 34.1203C28.2219 34.424 27.1265 34.6216 26.0196 34.7102C23.9376 34.847 21.8534 34.753 19.7703 34.7906ZM32.0184 14.3782C31.9759 13.7048 31.871 13.0368 31.7051 12.3828C31.0786 9.74209 29.81 8.37736 26.8727 8.06202C25.8635 7.91123 24.8423 7.85565 23.8227 7.896L19.2941 7.90853C18.4379 7.90853 17.5828 7.89287 16.7265 7.90853C16.1721 7.91584 15.6135 7.86676 15.0611 7.97014C14.3767 7.94583 13.6917 7.99766 13.0187 8.12467C12.321 8.15311 11.6349 8.3125 10.9961 8.59455C10.5543 8.73893 10.1472 8.97309 9.80019 9.28234C9.45321 9.59159 9.17392 9.96923 8.97985 10.3916C8.91943 10.4893 8.86402 10.59 8.81383 10.6933C8.35439 11.7688 8.17375 12.9038 8.10066 14.0618C8.08133 14.1092 8.06732 14.1586 8.05889 14.209C7.92419 16.1126 7.86572 18.0182 7.90331 19.9269C7.87199 21.6728 7.8866 23.4186 7.98998 25.1624C8.04218 26.4634 8.16644 27.755 8.61648 28.9892C9.007 30.0679 9.72434 30.8562 10.7977 31.2989C11.7939 31.7103 12.8422 31.8691 13.9083 31.9453C15.3896 32.0709 16.8763 32.1214 18.3627 32.0967L23.6744 32.1113C24.823 32.1322 25.9768 32.1165 27.1118 31.8805C27.6929 31.8269 28.2617 31.6813 28.7971 31.4493C29.1991 31.2854 29.621 31.1361 29.9175 30.7904C30.543 30.4223 31.0182 29.845 31.2593 29.1605C31.6769 28.5256 31.8106 27.8031 31.892 27.0721C31.9161 27.0129 31.934 26.9513 31.9453 26.8884C32.0497 25.6145 32.1144 24.3385 32.1155 23.0594C32.2095 22.5697 32.1781 22.0737 32.174 21.5798C32.2084 20.355 32.2345 19.1302 32.1907 17.9044C32.2208 16.7263 32.1632 15.5477 32.0184 14.3782Z" fill="#FFFEFE"/>
<path d="M34.7708 15.317C34.6768 14.1141 34.6445 12.906 34.3792 11.7188C33.7058 8.70215 31.9328 6.70048 28.9652 5.78996C27.9796 5.50475 26.9626 5.34203 25.9371 5.30547C25.848 5.29447 25.7598 5.27738 25.673 5.2543C25.8014 5.20627 25.9956 5.31591 26.0614 5.15719C26.1366 4.97655 25.9267 4.90451 25.8379 4.7886C25.791 4.727 25.7335 4.67688 25.6782 4.6184C24.7123 3.49697 23.735 2.38179 22.7806 1.25305C22.4434 0.853131 22.0393 0.50229 21.8012 0.0219727H26.3298C26.347 0.082991 26.3727 0.141322 26.406 0.195305C27.2156 1.14063 28.0262 2.08351 28.8378 3.02396C29.4236 3.69953 30.0178 4.3678 30.6025 5.04338C31.3553 5.91526 32.1019 6.79341 32.8548 7.66529C33.5857 8.50898 34.3166 9.34535 35.0475 10.188C35.8265 11.0895 36.6037 11.992 37.3791 12.8955C37.9785 13.593 38.557 14.3093 39.1856 14.9839C39.4299 15.2449 39.551 15.6626 39.9854 15.721C39.9854 17.492 39.9854 19.2622 39.9854 21.0317C39.8402 21.0432 39.764 20.9649 39.6721 20.8552C38.9172 19.9698 38.1456 19.0968 37.3833 18.2166C36.7829 17.5222 36.2076 16.8039 35.5811 16.1345C35.3263 15.8474 35.1791 15.4537 34.7708 15.317Z" fill="#1A2023"/>
<path d="M29.2252 0.0252643C30.7351 0.0106459 32.2418 0.0388385 33.7068 0.465903C36.6576 1.3263 38.5706 3.24966 39.4926 6.16811C39.8243 7.23383 39.9902 8.34423 39.9844 9.46037C39.9844 10.4482 39.9844 11.4363 39.9844 12.4248C39.8194 12.4425 39.7306 12.3412 39.6325 12.2264C38.7331 11.1759 37.8313 10.1259 36.927 9.07612C36.1815 8.21572 35.4224 7.36681 34.6789 6.50433C33.7653 5.44763 32.8673 4.3784 31.9536 3.3217C31.2008 2.45087 30.4208 1.60196 29.6878 0.711283C29.5186 0.50767 29.2169 0.360442 29.2252 0.0252643Z" fill="#1A2023"/>
<path d="M29.2252 0.025199C29.2169 0.360377 29.5186 0.507605 29.6878 0.71435C30.4187 1.60189 31.2008 2.4508 31.9536 3.32477C32.8673 4.38147 33.7653 5.4507 34.6789 6.5074C35.4224 7.36988 36.1815 8.21879 36.927 9.07918C37.832 10.1233 38.7331 11.1734 39.6304 12.2294C39.7285 12.3443 39.8173 12.4456 39.9822 12.4278C39.9822 13.5235 39.9822 14.6188 39.9822 15.7138C39.5479 15.6554 39.4267 15.2377 39.1824 14.9766C38.5559 14.3073 37.9754 13.591 37.376 12.8883C36.5991 11.9834 35.8219 11.0809 35.0444 10.1808C34.3135 9.33814 33.5825 8.50176 32.8516 7.65807C32.1019 6.78723 31.3553 5.91013 30.6025 5.03825C30.0178 4.36267 29.4236 3.69441 28.8378 3.01883C28.0248 2.07769 27.2142 1.1348 26.406 0.190178C26.3727 0.136195 26.347 0.0778641 26.3298 0.0168457L29.2252 0.025199Z" fill="#1A2023"/>
<path d="M9.29309 6.47402C8.83331 6.71925 8.40547 7.02014 8.01921 7.36992C7.48042 7.84083 6.98235 8.35143 6.63464 8.98837C6.51665 8.98837 6.4634 8.90484 6.39344 8.82131C5.85256 8.18089 5.30646 7.54429 4.75514 6.91153C4.00021 6.04591 3.22126 5.19909 2.49451 4.3105C2.27942 4.04737 1.94633 3.86256 1.86279 3.49501C2.63548 2.46128 3.5627 1.61551 4.75932 1.08716C5.96637 2.48843 7.17552 3.88448 8.37005 5.29411C8.6927 5.67523 9.08426 6.00519 9.29309 6.47402Z" fill="#1A2023"/>
<path d="M34.0649 29.5397C34.4242 28.3442 34.6411 27.1105 34.7113 25.8642C34.7334 25.8317 34.7517 25.7966 34.7656 25.7598C34.8053 25.6282 34.6946 25.4267 34.8397 25.3672C35.0183 25.2941 35.0893 25.5081 35.1864 25.6178C35.9486 26.4803 36.7084 27.3448 37.4658 28.2115C38.0505 28.885 38.6019 29.5888 39.2106 30.2393C39.4403 30.4836 39.5604 30.8605 39.9415 30.9472C39.9441 32.3229 39.6424 33.6821 39.0582 34.9276C38.865 34.914 38.771 34.7584 38.6645 34.6352C38.2468 34.158 37.8521 33.6683 37.4407 33.189C36.4759 32.0648 35.508 30.9423 34.5369 29.8216C34.4168 29.6817 34.2999 29.5073 34.0649 29.5397Z" fill="#1A2023"/>
<path d="M16.1763 5.22107L13.2035 5.38291C13.1781 5.24312 13.1115 5.11407 13.0124 5.01223C12.0424 3.88662 11.0609 2.7704 10.1086 1.63017C9.69093 1.13628 9.196 0.711305 8.89319 0.128659C10.2746 -0.0415409 11.6613 0.000225834 13.0521 0.0179767C13.0605 0.0683181 13.0779 0.116757 13.1033 0.161028C14.137 1.36043 15.1739 2.55983 16.2139 3.75923C16.5174 4.11146 16.8177 4.46579 17.115 4.8222C17.1808 4.89946 17.2674 4.9924 17.2194 5.09577C17.1714 5.19914 17.0346 5.14798 16.9375 5.15946C16.6858 5.1887 16.4227 5.09786 16.1763 5.22107Z" fill="#1A2023"/>
<path d="M39.9457 30.9503C39.5604 30.8636 39.4403 30.4867 39.2148 30.2424C38.606 29.5918 38.0547 28.8849 37.47 28.2146C36.7147 27.3458 35.9542 26.4813 35.1885 25.6209C35.0914 25.5112 35.0204 25.2972 34.8418 25.3703C34.6967 25.4298 34.8074 25.6313 34.7677 25.7629C34.7538 25.7997 34.7355 25.8348 34.7134 25.8673C34.7906 24.3334 34.7604 22.7964 34.7844 21.2615C34.917 21.2615 34.9849 21.3607 35.0621 21.4505C35.8063 22.3227 36.5529 23.1928 37.3019 24.0609C38.0693 24.9495 38.8452 25.8297 39.6064 26.7214C39.7021 26.8424 39.8355 26.9281 39.9854 26.9647C39.9917 28.2971 40.0334 29.6221 39.9457 30.9503Z" fill="#1A2023"/>
<path d="M26.0196 34.7093C27.1265 34.6207 28.2219 34.4231 29.29 34.1194C29.2903 34.197 29.3073 34.2737 29.3399 34.3441C29.3725 34.4146 29.42 34.4772 29.479 34.5277C29.7285 34.7908 29.9666 35.0654 30.2026 35.34C31.1319 36.4176 32.0695 37.4889 32.979 38.5822C33.2286 38.8818 33.593 39.1042 33.6765 39.5303C32.8474 39.7882 31.9829 39.7537 31.1329 39.8352C30.8103 39.8665 30.4845 39.8519 30.1598 39.8581C29.9645 39.3799 29.5614 39.0562 29.2419 38.6751C28.228 37.468 27.1839 36.286 26.1449 35.0999C26.0975 35.0474 26.0617 34.9855 26.0401 34.9181C26.0185 34.8508 26.0115 34.7796 26.0196 34.7093Z" fill="#1A2023"/>
<path d="M39.9833 26.9626C39.8334 26.9259 39.7 26.8403 39.6043 26.7193C38.8431 25.8276 38.0672 24.9442 37.2998 24.0587C36.5501 23.1907 35.8035 22.3205 35.06 21.4483C34.9828 21.3585 34.9149 21.2635 34.7823 21.2593V17.5849C34.9838 17.5567 35.0955 17.6998 35.2 17.824C35.9065 18.6287 36.6106 19.4366 37.3123 20.2475C37.9388 20.969 38.5507 21.7031 39.1918 22.4142C39.4288 22.6794 39.6408 22.9864 39.9896 23.1326C39.9875 24.4099 39.9854 25.6866 39.9833 26.9626Z" fill="#1A2023"/>
<path d="M33.6765 39.5302C33.593 39.1062 33.2286 38.8818 32.979 38.5821C32.0695 37.4888 31.1319 36.4175 30.2026 35.3399C29.9666 35.0653 29.7285 34.7907 29.479 34.5276C29.4199 34.4771 29.3725 34.4145 29.3399 34.3441C29.3073 34.2736 29.2903 34.1969 29.29 34.1193C30.1494 33.828 30.9625 33.4144 31.7041 32.8914C31.8412 32.9663 31.96 33.0708 32.0518 33.1973C32.5391 33.7542 33.0208 34.3111 33.4969 34.868C34.067 35.5352 34.6278 36.2118 35.2052 36.8738C35.603 37.3312 36.0196 37.7708 36.4279 38.2177C35.6159 38.848 34.6774 39.2957 33.6765 39.5302Z" fill="#1A2023"/>
<path d="M16.1763 5.22091C16.4227 5.09979 16.6858 5.19063 16.9385 5.15931C17.0356 5.14782 17.1672 5.21152 17.2204 5.09561C17.2737 4.97971 17.1807 4.89931 17.116 4.82204C16.8181 4.46146 16.5174 4.10714 16.2138 3.75908C15.1759 2.55898 14.1373 1.35958 13.0981 0.160873C13.0745 0.116254 13.0589 0.0678318 13.0521 0.0178223H16.5689C16.6346 0.391635 16.9489 0.601513 17.1682 0.860466C18.2468 2.13122 19.361 3.37274 20.4469 4.63722C20.59 4.80325 20.8009 4.95048 20.7863 5.223L16.1763 5.22091Z" fill="#1A2023"/>
<path d="M20.7789 5.22105C20.7936 4.9527 20.5826 4.80338 20.4396 4.63527C19.3526 3.37078 18.2395 2.12927 17.1609 0.858513C16.9416 0.599559 16.6273 0.389681 16.5616 0.0158691H19.9217C20.07 0.405344 20.402 0.648635 20.662 0.949355C21.6018 2.03633 22.5415 3.11496 23.4604 4.22073C23.7141 4.52772 24.1182 4.74282 24.1495 5.21269C24.0994 5.22209 24.0514 5.22627 24.0274 5.16571C23.4426 5.18555 22.8537 5.09157 22.2721 5.21687L20.7789 5.22105Z" fill="#1A2023"/>
<path d="M1.86593 3.49487C1.94947 3.86242 2.2836 4.04724 2.49765 4.31037C3.22857 5.19896 4.00334 6.04578 4.75828 6.91139C5.3089 7.54416 5.855 8.18075 6.39658 8.82118C6.46654 8.90471 6.51979 8.9872 6.63778 8.98824C6.24608 9.70982 5.92876 10.4694 5.69072 11.2551C5.43803 11.2812 5.32108 11.0797 5.19161 10.9314C3.8509 9.39234 2.51506 7.84905 1.18409 6.3016C1.01807 6.10947 0.919915 5.84738 0.634857 5.78578C0.876494 4.94282 1.29631 4.16158 1.86593 3.49487Z" fill="#1A2023"/>
<path d="M36.4279 38.2168C36.0196 37.7699 35.603 37.3303 35.2052 36.8729C34.6278 36.2109 34.067 35.5343 33.4969 34.8671C33.0173 34.3102 32.5356 33.7533 32.0518 33.1964C31.96 33.0699 31.8412 32.9654 31.7041 32.8905C32.2189 32.4437 32.6867 31.9455 33.1001 31.4036C33.5178 31.5362 33.6828 31.935 33.9438 32.2201C34.7437 33.0951 35.5007 34.0088 36.2734 34.9088C36.8184 35.5451 37.3621 36.1824 37.9044 36.8207C37.4794 37.3595 37.0147 37.8534 36.4279 38.2168Z" fill="#1A2023"/>
<path d="M37.9033 36.8206C37.3596 36.1836 36.816 35.5463 36.2723 34.9087C35.4996 34.0086 34.7426 33.095 33.9428 32.22C33.6817 31.9349 33.5126 31.536 33.0991 31.4034C33.4707 30.8091 33.7937 30.1858 34.0649 29.5396C34.2999 29.5072 34.4168 29.6816 34.5411 29.8246C35.5122 30.9454 36.4801 32.0679 37.4449 33.1921C37.8563 33.6713 38.2552 34.1611 38.6687 34.6382C38.7731 34.7615 38.8692 34.917 39.0623 34.9306C38.7907 35.6241 38.3983 36.264 37.9033 36.8206Z" fill="#1A2023"/>
<path d="M8.89318 0.123291C9.19599 0.705937 9.69615 1.13091 10.1086 1.6248C11.0609 2.76504 12.0424 3.88125 13.0124 5.00687C13.1121 5.10955 13.1786 5.23977 13.2035 5.38068L11.0108 5.77537C10.9585 5.41827 10.6442 5.25329 10.4375 5.01209C9.50193 3.91049 8.54547 2.81933 7.61616 1.71147C7.27681 1.30633 6.85183 0.965935 6.63673 0.458469C7.37392 0.246503 8.13198 0.177588 8.89318 0.123291Z" fill="#1A2023"/>
<path d="M6.63674 0.462646C6.85184 0.965936 7.27682 1.30633 7.61617 1.71565C8.54548 2.81934 9.50194 3.91049 10.4417 5.01209C10.6505 5.25329 10.9638 5.41827 11.0149 5.77538L9.29311 6.47393C9.08427 6.00509 8.68958 5.67514 8.36693 5.29402C7.1724 3.88439 5.96534 2.48833 4.75932 1.08706C5.34437 0.772052 5.97957 0.56079 6.63674 0.462646Z" fill="#1A2023"/>
<path d="M39.9917 23.1325C39.6429 22.9863 39.4309 22.6793 39.1939 22.4141C38.557 21.703 37.9409 20.969 37.3144 20.2475C36.6127 19.4372 35.9086 18.6294 35.2021 17.8239C35.0924 17.6997 34.9849 17.5566 34.7844 17.5848L34.7708 15.3169C35.1749 15.4485 35.3221 15.8473 35.58 16.124C36.2065 16.7934 36.7819 17.5117 37.3823 18.2061C38.1445 19.0863 38.9162 19.9593 39.6711 20.8447C39.7651 20.9544 39.8413 21.0327 39.9843 21.0212L39.9917 23.1325Z" fill="#1A2023"/>
<path d="M24.1516 5.21368C24.1203 4.74693 23.7162 4.5287 23.4625 4.22171C22.5478 3.11594 21.6007 2.03731 20.6641 0.950333C20.4041 0.649612 20.072 0.406321 19.9238 0.0168457H21.8033C22.0413 0.497163 22.4454 0.852181 22.7827 1.24792C23.7371 2.38189 24.7144 3.49706 25.6834 4.6185C25.7346 4.67697 25.7962 4.72292 25.8432 4.7887C25.9319 4.9046 26.1418 4.97665 26.0666 5.15729C26.0008 5.316 25.8066 5.20637 25.6782 5.2544L24.1516 5.21368Z" fill="#1A2023"/>
<path d="M7.90645 19.9271C7.86886 18.0184 7.92733 16.1128 8.06203 14.2092C8.07046 14.1588 8.08447 14.1094 8.1038 14.062C8.31263 14.0704 8.41705 14.2353 8.53295 14.368C9.02023 14.9248 9.50159 15.4817 9.97703 16.0386C10.5461 16.7069 11.0912 17.396 11.6947 18.033C11.938 18.2898 12.0518 18.718 12.4987 18.7566C12.4999 18.8476 12.4964 18.9385 12.4883 19.0291C12.2891 20.456 12.5116 21.91 13.1283 23.2121C13.8979 24.8692 15.1331 26.0846 16.7631 26.876C17.8005 27.3666 18.936 27.6148 20.0835 27.6017C20.0754 27.6722 20.0826 27.7435 20.1046 27.8109C20.1266 27.8783 20.1629 27.9402 20.2109 27.9923C21.1288 29.0302 22.0539 30.0618 22.9404 31.1248C23.2004 31.438 23.5669 31.6824 23.6713 32.1105L18.3596 32.0958C18.3638 31.9507 18.311 31.8098 18.2124 31.7032C17.5288 30.9097 16.8428 30.1178 16.1543 29.3278C15.3796 28.4413 14.5881 27.5662 13.8227 26.6756C12.9185 25.6314 12.0288 24.5695 11.1277 23.5201C10.1622 22.3889 9.19182 21.2633 8.21657 20.1432C8.13303 20.0482 8.05368 19.9355 7.90645 19.9271Z" fill="#1A2023"/>
<path d="M32.1907 17.8992C32.2345 19.1251 32.2084 20.3499 32.174 21.5747C32.0341 21.9308 32.1614 22.3056 32.0988 22.6659C31.8983 22.6335 31.8002 22.4685 31.6811 22.3349C31.4169 22.0331 31.1643 21.7219 30.9043 21.417C30.307 20.7209 29.709 20.0248 29.1104 19.3287C28.5517 18.6824 27.9931 18.036 27.424 17.4001C27.3541 17.3218 27.2789 17.0994 27.1004 17.2957C26.4402 15.6599 25.2597 14.2871 23.7413 13.3895C23.7851 13.1504 23.6243 12.9927 23.4938 12.8423C22.3713 11.5517 21.2279 10.2789 20.1201 8.97891C19.8308 8.63851 19.4623 8.35241 19.2962 7.91072L23.8258 7.89819C23.8393 7.96014 23.8629 8.01943 23.8958 8.07361C24.4367 8.70011 24.9974 9.30886 25.5174 9.95312C25.8233 10.3301 26.2295 10.6329 26.407 11.109C25.9967 11.8399 25.9653 12.5761 26.5114 13.2433C27.0335 13.8761 27.7258 14.0369 28.5089 13.7904C28.7178 14.1496 29.0383 14.4169 29.3004 14.7375C29.8695 15.4246 30.4344 16.1168 31.0463 16.7653C31.419 17.1506 31.6655 17.6674 32.1907 17.8992Z" fill="#1A2023"/>
<path d="M7.90645 19.927C8.05368 19.9354 8.13303 20.046 8.2197 20.1431C9.19426 21.2681 10.1657 22.394 11.134 23.521C12.0351 24.5704 12.9247 25.6302 13.829 26.6765C14.5996 27.5672 15.3858 28.4422 16.1606 29.3287C16.8505 30.1174 17.5365 30.9092 18.2187 31.7042C18.3172 31.8107 18.3701 31.9517 18.3659 32.0968C16.8795 32.1215 15.3928 32.071 13.9115 31.9454C13.8784 31.7929 13.8019 31.6533 13.6911 31.5434C13.3048 31.109 12.9237 30.6715 12.5426 30.2308C11.7685 29.3322 10.9941 28.4317 10.2193 27.5296C9.63977 26.854 9.06443 26.1722 8.48283 25.5008C8.35126 25.3483 8.24267 25.1499 7.99311 25.1625C7.88974 23.4187 7.87512 21.6729 7.90645 19.927Z" fill="#1A2023"/>
<path d="M8.97984 10.3917C9.17368 9.96868 9.45298 9.59036 9.80016 9.28056C10.1473 8.97075 10.5549 8.73616 10.9972 8.59155C11.4378 8.9048 11.7145 9.36633 12.0622 9.76311L15.5581 13.7612C15.5551 13.7932 15.5453 13.8241 15.5295 13.852C15.5136 13.8799 15.4921 13.9041 15.4662 13.9231C14.7583 14.4399 14.1892 15.0905 13.6682 15.788C13.2432 15.6439 13.073 15.2283 12.8036 14.9328C11.8168 13.8458 10.8614 12.7296 9.92377 11.5977C9.60634 11.2062 9.17093 10.8919 8.97984 10.3917Z" fill="#1A2023"/>
<path d="M8.97985 10.3916C9.1678 10.8918 9.60009 11.2061 9.91961 11.5976C10.8594 12.7295 11.8127 13.8457 12.7994 14.9327C13.0688 15.2282 13.239 15.6438 13.664 15.7879C13.6013 15.8996 13.5418 16.0145 13.476 16.1251C12.9984 16.9391 12.6643 17.8292 12.4883 18.7564C12.0414 18.7178 11.9275 18.2897 11.6843 18.0328C11.0828 17.3959 10.5357 16.7046 9.96868 16.0374C9.49045 15.4805 9.00909 14.9236 8.5246 14.3668C8.40869 14.2341 8.30532 14.0692 8.09544 14.0608C8.16854 12.9028 8.34918 11.7636 8.80861 10.6923C8.86054 10.5892 8.91769 10.4889 8.97985 10.3916Z" fill="#1A2023"/>
<path d="M27.1024 17.2958C27.281 17.0985 27.3562 17.3209 27.4261 17.4002C27.9952 18.0361 28.5538 18.6825 29.1125 19.3288C29.7132 20.0249 30.3112 20.721 30.9063 21.4172C31.1663 21.7221 31.419 22.0332 31.6832 22.335C31.8001 22.4686 31.8983 22.6336 32.1009 22.666C32.1009 22.7955 32.1123 22.9249 32.1176 23.0544C32.1176 24.3335 32.0528 25.6095 31.9474 26.8834C31.9362 26.946 31.9184 27.0073 31.8941 27.0661C31.9035 26.8573 31.7782 26.6933 31.655 26.5503C31.0828 25.8841 30.4949 25.2305 29.9196 24.5664C29.3443 23.9023 28.7762 23.1996 28.1737 22.5438C27.9315 22.2807 27.7717 21.9111 27.377 21.8056C27.5165 21.1595 27.5865 20.5004 27.5859 19.8394C27.566 18.9623 27.3635 18.1249 27.1024 17.2958Z" fill="#1A2023"/>
<path d="M29.9175 30.7905C29.621 31.1392 29.1991 31.2854 28.7971 31.4494C28.2617 31.6814 27.6929 31.8269 27.1118 31.8806C27.1118 31.7229 27.0011 31.6112 26.9145 31.5099C26.004 30.4511 25.0778 29.4059 24.1673 28.3471C23.783 27.8992 23.3507 27.4888 23.05 26.972C23.8708 26.576 24.6304 26.064 25.3054 25.4517C25.3848 25.5341 25.4693 25.6135 25.5435 25.7012C26.2514 26.5251 26.9552 27.351 27.6631 28.1738C28.4143 29.0481 29.1657 29.9204 29.9175 30.7905Z" fill="#1A2023"/>
<path d="M19.2983 7.90868C19.4643 8.34723 19.8329 8.6396 20.1222 8.97687C21.23 10.2789 22.3734 11.5518 23.4959 12.8403C23.6264 12.9906 23.7872 13.1535 23.7434 13.3874C22.4051 12.6681 20.8932 12.3351 19.3766 12.4258C19.3709 12.375 19.3557 12.3258 19.3317 12.2806C18.8305 11.6917 18.3266 11.1049 17.8198 10.5201C17.235 9.84874 16.619 9.20345 16.0698 8.5049C15.7941 8.15406 15.5393 7.88884 15.0653 7.9682C15.6176 7.86378 16.1763 7.9139 16.7307 7.90659C17.5869 7.89302 18.4421 7.90659 19.2983 7.90868Z" fill="#1A2023"/>
<path d="M23.05 26.9719C23.3507 27.4888 23.7809 27.8991 24.1673 28.3471C25.0778 29.4059 26.004 30.4511 26.9145 31.5099C27.0011 31.6143 27.1118 31.7187 27.1118 31.8806C25.9768 32.1166 24.8272 32.1322 23.6744 32.1113C23.5637 31.6832 23.1983 31.4378 22.9435 31.1256C22.057 30.0616 21.1319 29.03 20.214 27.9931C20.166 27.941 20.1297 27.8792 20.1077 27.8118C20.0857 27.7444 20.0785 27.673 20.0866 27.6026C21.1041 27.5704 22.1076 27.3569 23.05 26.9719Z" fill="#1A2023"/>
<path d="M29.9175 30.7904C29.1657 29.9182 28.4143 29.046 27.6632 28.1738C26.9552 27.3509 26.2514 26.525 25.5435 25.7012C25.4694 25.6135 25.3848 25.5341 25.3054 25.4516C25.7758 24.9543 26.1955 24.4114 26.5584 23.8311C26.6711 23.9166 26.7782 24.0094 26.879 24.1088C27.5848 24.9128 28.2879 25.7193 28.9882 26.5281C29.7477 27.4039 30.5057 28.2813 31.2624 29.1605C31.0206 29.8455 30.5442 30.4229 29.9175 30.7904Z" fill="#1A2023"/>
<path d="M7.9931 25.1646C8.24266 25.1521 8.35125 25.3505 8.48282 25.5029C9.06442 26.1764 9.63976 26.8604 10.2193 27.5318C10.992 28.4367 11.7657 29.3371 12.5405 30.233C12.9205 30.6737 13.3017 31.1112 13.689 31.5455C13.7998 31.6554 13.8763 31.7951 13.9094 31.9475C12.8433 31.8713 11.7949 31.7126 10.7988 31.3012C9.72433 30.8564 9.00699 30.0722 8.61647 28.9894C8.16957 27.7552 8.04531 26.4636 7.9931 25.1646Z" fill="#1A2023"/>
<path d="M31.2593 29.1605C30.5012 28.2827 29.7431 27.4053 28.9851 26.5282C28.2848 25.72 27.5817 24.9136 26.8759 24.1089C26.7751 24.0095 26.668 23.9167 26.5553 23.8311C26.9125 23.193 27.1879 22.5124 27.375 21.8054C27.7697 21.9098 27.9294 22.2805 28.1717 22.5436C28.7742 23.1994 29.3338 23.8938 29.9175 24.5662C30.5012 25.2386 31.0807 25.8839 31.6529 26.5501C31.7761 26.6932 31.9014 26.8529 31.892 27.0659C31.8106 27.8031 31.6801 28.5257 31.2593 29.1605Z" fill="#1A2023"/>
<path d="M15.5581 13.7611L12.0654 9.76302C11.7177 9.36623 11.4389 8.90366 11.0003 8.59146C11.6391 8.30941 12.3252 8.15001 13.0229 8.12158C13.3737 8.14351 13.499 8.46094 13.6838 8.66873C14.68 9.78807 15.6591 10.9217 16.6211 12.0696C16.8404 12.3327 17.2069 12.5259 17.1881 12.9509C16.998 13.0177 16.8216 13.1169 16.6388 13.1983C16.2661 13.3654 15.9758 13.6786 15.5581 13.7611Z" fill="#1A2023"/>
<path d="M17.1881 12.9478C17.2069 12.5228 16.8403 12.3297 16.6211 12.0665C15.6625 10.918 14.6834 9.78469 13.6838 8.66674C13.499 8.45791 13.3706 8.14466 13.0229 8.1196C13.6958 7.99258 14.3808 7.94075 15.0653 7.96506C15.5393 7.8857 15.7962 8.15092 16.0698 8.50176C16.619 9.20031 17.235 9.8456 17.8198 10.517C18.3272 11.101 18.8312 11.6879 19.3317 12.2775C19.3556 12.3226 19.3709 12.3718 19.3766 12.4226C18.6321 12.5385 17.8939 12.6753 17.1881 12.9478Z" fill="#1A2023"/>
<path d="M26.8769 8.06226C29.8141 8.37551 31.087 9.74232 31.7093 12.383C31.8752 13.037 31.98 13.705 32.0226 14.3784C31.8358 14.2892 31.6721 14.1581 31.5443 13.9952C31.0229 13.3792 30.5009 12.7624 29.9781 12.145C29.9248 12.0833 29.8737 12.0322 29.7818 12.0562C29.6899 12.0802 29.7066 12.1481 29.6951 12.2107C29.6836 12.2734 29.6565 12.3569 29.6377 12.429C29.7202 11.626 29.4205 11.0047 28.7533 10.5557C28.7597 10.5043 28.7553 10.4521 28.7404 10.4025C28.7255 10.3528 28.7003 10.3069 28.6666 10.2675C28.2886 9.84256 27.8908 9.4322 27.5504 8.98008C27.3207 8.67832 26.9395 8.48306 26.8769 8.06226Z" fill="#1A2023"/>
<path d="M29.6356 12.4257C29.6544 12.3536 29.6784 12.2816 29.693 12.2075C29.7076 12.1333 29.7014 12.0749 29.7797 12.0529C29.858 12.031 29.9227 12.0801 29.976 12.1417C30.4974 12.7598 31.0194 13.3766 31.5422 13.9919C31.67 14.1548 31.8337 14.286 32.0205 14.3752C32.165 15.5429 32.2226 16.7198 32.1927 17.8961C31.6707 17.6643 31.4211 17.1474 31.0546 16.7579C30.4427 16.1095 29.8778 15.4172 29.3088 14.7302C29.0467 14.4169 28.7292 14.1423 28.5173 13.7831C29.0947 13.5043 29.4936 13.072 29.6356 12.4257Z" fill="#1A2023"/>
<path d="M26.8769 8.06205C26.9406 8.47971 27.3207 8.67811 27.5483 8.97987C27.8887 9.43304 28.2865 9.84235 28.6645 10.2673C28.6982 10.3067 28.7234 10.3526 28.7383 10.4023C28.7532 10.4519 28.7576 10.5041 28.7512 10.5555L28.6729 10.5273L28.5914 10.4751C27.73 10.2214 26.9907 10.3895 26.4091 11.1016C26.2316 10.6255 25.8254 10.3227 25.5195 9.94572C24.9974 9.30356 24.4388 8.69272 23.8979 8.06622C23.865 8.01204 23.8414 7.95275 23.8279 7.8908C24.8474 7.85221 25.8682 7.90954 26.8769 8.06205Z" fill="#1A2023"/>
<path d="M22.2742 5.22106C22.8558 5.09576 23.4447 5.18973 24.0294 5.16989C23.4478 5.3025 22.86 5.21166 22.2742 5.22106Z" fill="#1A2023"/>
<path d="M32.1155 23.0543C32.1103 22.9248 32.104 22.7953 32.0988 22.6659C32.1614 22.3046 32.0341 21.9349 32.174 21.5747C32.1781 22.0686 32.2095 22.5646 32.1155 23.0543Z" fill="#1A2023"/>
<path d="M17.1881 12.9477C17.8939 12.6721 18.6321 12.5301 19.3808 12.4257C20.8977 12.336 22.4096 12.67 23.7475 13.3905C25.266 14.2881 26.4465 15.6609 27.1066 17.2967C27.3677 18.1258 27.5713 18.9674 27.5869 19.8403C27.5875 20.5013 27.5175 21.1604 27.3781 21.8065C27.1911 22.5135 26.9157 23.194 26.5584 23.8322C26.1955 24.4125 25.7758 24.9554 25.3054 25.4527C24.6304 26.065 23.8708 26.577 23.05 26.973C22.1058 27.3571 21.1004 27.5693 20.0814 27.5995C18.9339 27.6126 17.7985 27.3644 16.761 26.8738C15.131 26.0823 13.8958 24.8669 13.1262 23.2098C12.5095 21.9078 12.287 20.4538 12.4862 19.0269C12.4944 18.9363 12.4978 18.8453 12.4966 18.7544C12.6726 17.8271 13.0068 16.9371 13.4844 16.1231C13.5502 16.0124 13.6097 15.8975 13.6723 15.7858C14.1944 15.0883 14.7625 14.4378 15.4704 13.9209C15.4963 13.9019 15.5178 13.8777 15.5336 13.8498C15.5495 13.8219 15.5592 13.791 15.5623 13.7591C15.9737 13.6734 16.2661 13.3602 16.6388 13.1963C16.8216 13.1169 16.998 13.0177 17.1881 12.9477ZM19.2764 15.152C18.7047 15.1741 18.1474 15.3369 17.6538 15.626L17.5734 15.6553L17.5003 15.7064C16.288 16.3329 15.6208 17.3688 15.3075 18.6593C15.015 19.6758 15.0515 20.7588 15.4119 21.7532C16.3026 24.3762 18.7533 25.1833 20.7309 24.8554C22.0643 24.7322 23.1325 24.1465 23.9135 23.048L23.972 22.9749L24.0107 22.9028C24.3834 22.4445 24.5662 21.9025 24.6977 21.3366C25.0204 20.1881 24.9329 18.963 24.4503 17.872C23.4614 15.5582 21.1319 14.8429 19.2795 15.1551L19.2764 15.152Z" fill="#FFFEFE"/>
<path d="M28.6728 10.5273L28.7512 10.5555C29.4184 11.0045 29.718 11.6258 29.6356 12.4288C29.4936 13.072 29.0947 13.5043 28.5152 13.7862C27.732 14.0326 27.0408 13.8718 26.5177 13.239C25.9674 12.5718 25.9956 11.8388 26.4133 11.1048C26.9949 10.3895 27.7341 10.2214 28.5956 10.4783L28.6728 10.5273Z" fill="#FFFEFE"/>
<path d="M28.6729 10.5273L28.5914 10.4751L28.6729 10.5273Z" fill="#1A2023"/>
<path d="M24.0054 22.9059L23.9668 22.978L23.9083 23.0511C23.1294 24.1496 22.0591 24.7353 20.7257 24.8585C20.6401 24.8418 20.5388 24.8658 20.4803 24.7729C20.2109 24.3427 19.8455 23.9929 19.5155 23.6128C18.3774 22.2962 17.2288 20.9878 16.1042 19.6502C15.8327 19.3276 15.4882 19.0592 15.3075 18.6625C15.6281 17.3719 16.2911 16.3371 17.5003 15.7096L17.5734 15.6584L17.6538 15.6292C17.8595 15.9115 18.0831 16.1804 18.3231 16.4342C19.1051 17.3311 19.8789 18.2364 20.6547 19.1386C21.253 19.834 21.8336 20.5482 22.4548 21.2269C22.9717 21.7835 23.3894 22.4361 24.0054 22.9059Z" fill="#1A2023"/>
<path d="M24.0054 22.9059C23.3915 22.436 22.9748 21.7834 22.458 21.2227C21.8315 20.5482 21.2561 19.834 20.6578 19.1344C19.882 18.2322 19.1083 17.3269 18.3262 16.43C18.0862 16.1761 17.8627 15.9072 17.6569 15.6249C18.1508 15.3356 18.7086 15.1728 19.2806 15.1509C19.3399 15.17 19.3957 15.199 19.4456 15.2365C19.9001 15.7488 20.3526 16.2643 20.803 16.7829C21.7667 17.897 22.7368 19.0049 23.6817 20.1336C24.018 20.5367 24.4127 20.8886 24.6956 21.3376C24.5609 21.9056 24.3782 22.4496 24.0054 22.9059Z" fill="#1A2023"/>
<path d="M24.6925 21.3418C24.4127 20.8928 24.0148 20.5409 23.6786 20.1379C22.7336 19.0091 21.7636 17.9013 20.7998 16.7871C20.3515 16.2678 19.8991 15.7524 19.4424 15.2407C19.3926 15.2032 19.3368 15.1743 19.2774 15.1551C21.1287 14.8419 23.4541 15.5613 24.4419 17.8773C24.9256 18.9679 25.0142 20.1929 24.6925 21.3418Z" fill="#1A2023"/>
<path d="M15.3075 18.6626C15.4881 19.0594 15.8296 19.3277 16.1042 19.6504C17.2288 20.988 18.3774 22.2963 19.5155 23.613C19.8455 23.9931 20.2109 24.3439 20.4803 24.7731C20.5388 24.866 20.6401 24.842 20.7257 24.8587C18.7522 25.1865 16.2974 24.3794 15.4067 21.7565C15.048 20.7615 15.0133 19.6785 15.3075 18.6626Z" fill="#1A2023"/>
<path d="M23.9115 23.0511L23.9699 22.978L23.9115 23.0511Z" fill="#1A2023"/>
<path d="M17.5765 15.6626L17.5034 15.7138L17.5765 15.6626Z" fill="#1A2023"/>
</g>
<defs>
<clipPath id="clip0_345_218">
<rect width="40" height="40.0084" fill="white"/>
</clipPath>
</defs>
</svg>
