<svg width="82" height="82" viewBox="0 0 82 82" fill="none" xmlns="http://www.w3.org/2000/svg">
<path d="M41.351 41.0518L1.38713 40.943C1.374 32.4066 4.13789 24.0989 9.25912 17.2817C12.1137 17.9498 14.7101 17.5251 17.002 15.5158C19.5365 13.3354 22.2453 11.3678 25.1012 9.63283C26.2684 8.97806 27.2533 8.04004 27.9657 6.90461C28.6782 5.76919 29.0954 4.47263 29.1791 3.13361C33.0944 1.81855 37.2078 1.19647 41.3355 1.29518L41.351 41.0518ZM27.4137 37.8876C27.1659 37.0901 26.6549 36.8208 25.9271 36.593C23.2274 35.7592 20.5277 34.9202 17.8693 33.957C16.9246 33.6152 16.3826 33.724 15.7374 34.4749L27.4137 37.8876ZM40.0966 20.0782C40.0966 18.7887 40.0295 17.4889 40.0966 16.2046C40.1741 15.0808 39.8231 14.4749 38.7236 14.0451C35.7606 12.9109 32.808 11.6214 29.9069 10.3216C29.5779 10.1356 29.1992 10.0571 28.8236 10.097C28.448 10.1369 28.0941 10.2932 27.8112 10.5443C24.3251 13.106 20.8271 15.6418 17.3169 18.1517C16.9609 18.3541 16.6754 18.6613 16.4991 19.0318C16.3227 19.4023 16.2641 19.8182 16.331 20.2232C16.6751 23.5617 16.959 26.9088 17.1827 30.2646C17.2447 31.1916 17.7505 31.4402 18.4629 31.668C21.1523 32.5381 23.8468 33.3977 26.5207 34.3195C26.8806 34.4488 27.2689 34.4771 27.6436 34.4013C28.0184 34.3256 28.3655 34.1487 28.6474 33.8897C30.9703 32.1548 33.2158 30.2646 35.6883 28.7939C39.0591 26.769 41.382 24.4127 40.107 20.0989L40.0966 20.0782Z" fill="#1A2023"/>
<path d="M29.1791 3.13361C29.0953 4.47263 28.6781 5.76918 27.9657 6.90461C27.2533 8.04004 26.2684 8.97806 25.1011 9.63283C22.2458 11.3629 19.537 13.3253 17.002 15.5003C15.9241 16.4483 14.6325 17.1191 13.2386 17.4547C11.8447 17.7903 10.3904 17.7807 9.00098 17.4267C14.0132 10.477 21.049 5.73847 29.1791 3.13361Z" fill="#FEFEFE"/>
<path d="M10.1934 40.943C12.3562 38.5453 13.6828 36.9762 15.7476 34.4956C16.3929 33.724 16.9349 33.6152 17.8795 33.9777C20.5379 34.941 23.2376 35.7799 25.9373 36.6137C26.6652 36.8415 27.1762 37.1315 27.424 37.9083C28.7609 42.1445 27.0317 36.738 28.3944 40.9637" fill="#FEFEFE"/>
<path d="M40.4631 20.0989C41.0103 24.7183 39.0591 26.7691 35.6883 28.7991C33.2157 30.2854 30.9703 32.16 28.6474 33.8949C28.3654 34.1539 28.0184 34.3308 27.6436 34.4065C27.2689 34.4823 26.8806 34.454 26.5207 34.3247C23.8468 33.4029 21.1522 32.5433 18.4629 31.6732C17.7505 31.4454 17.2446 31.1968 17.1827 30.2698C16.9625 26.9175 16.6786 23.5704 16.331 20.2284C16.264 19.8234 16.3227 19.4075 16.499 19.037C16.6754 18.6665 16.9609 18.3593 17.3169 18.1569C20.8339 15.647 24.3234 13.1043 27.7854 10.5288C28.0722 10.2744 28.4317 10.1175 28.8127 10.0803C29.1937 10.0431 29.5766 10.1275 29.9069 10.3216C32.8338 11.6422 35.7864 12.9109 38.7803 14.0865C39.252 14.2246 39.6626 14.52 39.9442 14.924C40.2258 15.328 40.3615 15.8163 40.3289 16.3082C40.3341 17.5717 40.4631 18.8094 40.4631 20.0989Z" fill="#FEFEFE"/>
<path d="M59.2991 59.9436L59.8153 59.7105L59.2991 59.9436Z" fill="#CDCDCD"/>
<path d="M25.9632 40.9897C25.829 42.0254 25.5761 44.7649 25.447 45.7851C24.5061 54.9781 20.4116 63.5577 13.8636 70.0575C13.1999 69.6049 12.6331 69.0239 12.1963 68.3485C12.4079 68.1103 12.6092 67.8617 12.826 67.6235C18.9017 61.0052 21.973 49.9643 22.7577 40.9897" fill="#1A2023"/>
<path d="M1.38708 40.9431C8.00471 40.9431 15.8406 41.0311 22.4375 40.9431C23.919 40.9431 23.3512 42.7608 23.1499 44.2574C21.9626 53.1906 18.9119 61.0052 12.826 67.6235C12.6092 67.8617 12.4079 68.1103 12.1962 68.3485C5.35663 61.0725 1.69164 50.9223 1.38708 40.9431Z" fill="#FF8C00"/>
<path d="M41.0671 80.7514C35.4405 81 22.484 78.2709 15.407 71.4298C14.7893 71.1026 14.2583 70.6321 13.8584 70.0575C20.4121 63.56 24.5121 54.9801 25.4573 45.7851C25.576 44.7494 25.6328 43.7758 25.7722 42.7556C25.7998 42.1636 25.8636 41.5738 25.9632 40.9897C30.4696 40.9172 38.5171 40.9897 41.351 40.9223" fill="#FF8C00"/>
<path d="M41.3354 12.1341V24.1745C50.627 24.0658 60.4811 26.5101 68.7971 30.6478C73.1357 33.0501 77.1822 35.9487 80.8554 39.2859C80.8554 41.927 79.5804 40.9068 76.762 40.6686C73.2983 37.3387 73.3138 36.3392 69.272 34.0658C60.1405 28.5919 51.8555 27.0383 41.3509 27.0797" fill="#1A2023"/>
<path d="M41.7794 1.2952C40.5457 3.95185 41.1032 6.22011 41.0877 9.45159C48.9649 8.32782 54.292 9.58106 61.7614 11.694C64.3423 12.6831 66.9233 13.6567 69.4062 14.8478C70.4816 15.343 71.4952 15.9635 72.426 16.6965C73.799 18.0844 74.4907 19.0528 75.8019 21.7354C75.5231 21.1709 76.1994 22.9109 74.1965 20.7463C71.4039 18.8509 68.57 17.0435 65.3489 15.9456C56.9607 12.1807 48.1854 11.2848 39.1313 12.3516" fill="#1A2023"/>
<path d="M41.1032 75.7696C41.0103 77.608 41.0258 79.0528 41.0671 80.7411C46.2291 80.4356 46.7453 80.3268 50.4515 79.4361C63.9759 76.1994 72.395 67.9187 77.6964 55.8939C79.947 50.7981 80.5612 45.7074 80.8761 40.6686C79.1159 40.6686 78.5687 40.5805 76.7466 40.6686" fill="#1A2023"/>
<path d="M41.4129 40.7307C41.4129 41.5231 41.4129 42.3206 41.3871 43.1181L41.4129 40.7307ZM41.3509 40.9223L41.1031 75.7696C41.1031 75.7696 72.7563 76.0285 76.7619 40.6686L41.3509 40.9223ZM44.3862 72.9834C43.8967 73.0766 43.3941 73.0766 42.9047 72.9834C42.6156 72.9472 42.7085 72.6313 42.7085 72.4241C42.7085 71.0104 42.7085 69.5914 42.7085 68.1776C42.7085 67.1885 43.3899 67.6183 43.8235 67.5458C44.2571 67.4733 44.6701 67.5458 44.6081 68.1984C44.5462 68.8509 44.6081 69.6484 44.6081 70.3682C44.6081 70.9379 44.6081 71.5075 44.6081 72.0668C44.5462 72.3568 44.7836 72.854 44.3862 72.9834ZM58.2563 68.8405C57.8547 69.1668 57.4164 69.4449 56.9504 69.6691C56.6923 69.6225 56.6355 69.4257 56.5477 69.2755C55.8096 68.0016 55.0869 66.7224 54.3332 65.4588C54.1268 65.1067 54.1784 64.941 54.5242 64.7287C55.696 63.9726 55.6857 63.9519 56.3929 65.1844C56.9091 66.1062 57.4665 67.0228 57.9414 67.9653C58.1118 68.2191 58.566 68.5194 58.2563 68.8405ZM67.8266 59.0011C67.6511 59.3739 67.5427 59.9487 66.8458 59.5189C65.6586 58.7577 64.4197 58.0844 63.2324 57.3698C63.0569 57.261 62.8092 57.2248 62.7885 56.8882C63.0077 56.4203 63.2871 55.9833 63.6196 55.5883C63.8932 55.3294 64.2235 55.7696 64.5075 55.9249C65.6276 56.5515 66.7116 57.2403 67.8524 57.8359C68.6628 58.2398 67.9918 58.623 67.8266 59.0011ZM71.1148 45.8628C69.6436 45.8628 68.1776 45.8628 66.7064 45.8628C65.8599 45.8628 66.1903 45.231 66.1903 44.827C66.1903 44.4231 65.9425 43.8845 66.7064 43.9156C67.4704 43.9467 68.1466 43.9156 68.8641 43.9156H70.454C71.5484 43.9156 71.9355 44.4801 71.6051 45.5417C71.5226 45.8369 71.3419 45.8472 71.1148 45.8472V45.8628Z" fill="#FEFEFE"/>
<path d="M48.2835 45.464C47.9927 45.1408 47.8025 44.7394 47.7363 44.3092C47.6505 43.6302 47.3149 43.0079 46.7954 42.5644C46.2759 42.1208 45.61 41.8879 44.9282 41.9114C44.4964 41.926 44.074 42.0417 43.6948 42.2495C43.3157 42.4572 42.9903 42.7511 42.7447 43.1077C42.0065 44.1434 42.2698 45.9094 42.7447 46.2926C42.9558 46.6014 43.2296 46.8621 43.548 47.0575C43.8665 47.2529 44.2224 47.3787 44.5927 47.4267C45.0829 47.5059 45.5399 47.7253 45.909 48.0585C49.3984 50.9275 52.8965 53.7913 56.4032 56.6499C56.6252 56.8364 56.7955 57.1678 57.2807 57.0383C57.0919 56.5855 56.8146 56.1753 56.4651 55.8317C53.7431 52.3723 51.0158 48.9165 48.2835 45.464Z" fill="#1A2023"/>
<path d="M44.5669 72.0409C44.603 71.4816 44.5669 70.912 44.5669 70.3423C44.5669 69.6225 44.5205 68.8923 44.5669 68.1725C44.6134 67.4526 44.2675 67.4371 43.7823 67.5199C43.2971 67.6028 42.6467 67.1626 42.6673 68.1517C42.7086 69.5655 42.6673 70.9845 42.6673 72.3982C42.6673 72.6054 42.5744 72.9161 42.8635 72.9575C43.3529 73.0507 43.8555 73.0507 44.3449 72.9575C44.7837 72.854 44.5463 72.3568 44.5669 72.0409Z" fill="#1A2023"/>
<path d="M70.4592 43.926H68.8693C68.1518 43.926 67.4291 43.926 66.7116 43.926C65.9941 43.926 66.1593 44.4438 66.1954 44.8374C66.2316 45.231 65.8702 45.8731 66.7116 45.8731C68.1828 45.8731 69.6488 45.8731 71.1199 45.8731C71.3471 45.8731 71.5277 45.8731 71.6361 45.578C71.9407 44.5008 71.5535 43.926 70.4592 43.926Z" fill="#1A2023"/>
<path d="M56.393 65.1688C55.6858 63.9363 55.6961 63.957 54.5243 64.7131C54.1785 64.9358 54.1269 65.0911 54.3333 65.4433C55.087 66.7069 55.8097 67.986 56.5478 69.26C56.6356 69.4101 56.6923 69.6069 56.9504 69.6535C57.4165 69.4293 57.8548 69.1512 58.2564 68.825C58.5661 68.5194 58.1119 68.219 57.9674 67.9498C57.4666 67.0072 56.9246 66.0906 56.393 65.1688Z" fill="#1A2023"/>
<path d="M67.8267 57.8048C66.6859 57.2092 65.6019 56.5204 64.4818 55.8938C64.1978 55.7385 63.8675 55.2983 63.5939 55.5572C63.2614 55.9522 62.982 56.3892 62.7628 56.8571C62.7628 57.1937 63.0312 57.2299 63.2067 57.3387C64.4198 58.0533 65.6587 58.7266 66.8201 59.4878C67.517 59.9332 67.6254 59.3584 67.8009 58.97C67.9764 58.5816 68.6629 58.2398 67.8267 57.8048Z" fill="#1A2023"/>
<path d="M41.3354 1.2952V9.42052C41.3354 9.42052 53.466 6.71208 72.0439 16.2874C72.0439 16.2874 61.2193 1.37806 41.3354 1.2952Z" fill="#FEFEFE"/>
<path d="M80.494 39.0373C80.494 39.0373 65.6741 24.2522 41.2632 24.1745V12.1341C41.2632 12.1341 58.4783 9.28587 75.105 21.3573C75.105 21.3573 79.5288 26.6189 80.494 39.0373Z" fill="#FEFEFE"/>
<path d="M41 80.7411C62.9488 80.7411 80.7419 62.9484 80.7419 41C80.7419 19.0516 62.9488 1.25894 41 1.25894C19.0511 1.25894 1.25806 19.0516 1.25806 41C1.25806 62.9484 19.0511 80.7411 41 80.7411Z" stroke="#1A2023" stroke-miterlimit="10"/>
<path d="M41.351 27.0798V40.9223L76.762 40.6686C76.762 40.6686 67.233 26.2356 41.351 27.0798Z" fill="#FEFEFE"/>
</svg>
