<svg width="40" height="40" viewBox="0 0 40 40" fill="none" xmlns="http://www.w3.org/2000/svg">
<g clip-path="url(#clip0_345_290)">
<path d="M4.60897 0H35.3089C35.3297 0.0576157 35.3775 0.0649709 35.4315 0.073552C38.1086 0.528348 39.9877 2.69323 39.9914 5.40117C40.002 15.1264 40.002 24.8516 39.9914 34.5768C39.9914 37.6316 37.6183 39.9804 34.5587 39.9951C31.8375 40.0074 29.1174 39.9951 26.3962 40.0037C26.1179 40.0037 26.0174 39.9547 26.0186 39.6457C26.0407 35.1166 26.0517 30.587 26.0517 26.057C26.0517 25.753 26.1498 25.6893 26.4293 25.6978C27.888 25.7113 29.3454 25.7052 30.8029 25.6978C31.4955 25.6978 31.7995 25.4232 31.8816 24.738C32.0422 23.3822 32.1954 22.0251 32.3633 20.6706C32.4859 19.7046 32.1807 19.3491 31.2086 19.3491H26.3655C26.2025 19.3491 26.0162 19.3932 26.0235 19.1162C26.0591 17.6194 25.9426 16.1214 26.0983 14.6283C26.1853 13.7787 26.5886 13.1266 27.4197 12.8078C27.7711 12.6678 28.1447 12.5914 28.5229 12.5823C29.3957 12.5713 30.2672 12.5676 31.14 12.5553C31.8877 12.5443 32.2126 12.2268 32.2175 11.4851C32.2248 10.314 32.2248 9.14251 32.2175 7.97058C32.2175 7.24242 31.8975 6.91879 31.1694 6.91879C29.7119 6.91879 28.252 6.86485 26.797 6.95434C25.1483 7.05486 23.6271 7.53908 22.3486 8.62397C20.6583 10.0521 19.9694 11.9583 19.8406 14.0975C19.7426 15.723 19.8076 17.3509 19.8051 18.9776C19.8051 19.2682 19.7254 19.3577 19.4374 19.3527C18.3954 19.3356 17.3535 19.3429 16.3128 19.3527C15.5332 19.3527 15.2292 19.6641 15.2292 20.4474C15.2292 21.827 15.2325 23.2065 15.239 24.586C15.239 25.3828 15.5565 25.6991 16.352 25.7003C17.4062 25.7003 18.4604 25.7089 19.5146 25.7003C19.772 25.7003 19.8431 25.7726 19.8419 26.0276C19.8247 30.5707 19.8137 35.1137 19.8088 39.6568C19.8088 39.875 19.799 40.0074 19.5048 40.0074C14.7524 39.9951 10.0012 40.0184 5.25006 39.9878C2.81932 39.9632 0.735474 38.2372 0.15445 35.8872C0.112773 35.7181 0.142192 35.5195 0 35.3834V4.61416C0.111547 4.56758 0.0735474 4.46093 0.0931601 4.37879C0.641497 2.07008 2.06791 0.641537 4.3724 0.0931658C4.45452 0.073552 4.56239 0.111554 4.60897 0Z" fill="#1A2023"/>
<path d="M35.4315 0.0735519C35.3775 0.0649709 35.3297 0.0576157 35.3089 0L35.4315 0.0735519Z" fill="white"/>
<path d="M19.4986 40C19.7928 40 19.8014 39.8676 19.8026 39.6494C19.8084 35.1063 19.8194 30.5633 19.8357 26.0202C19.8357 25.7652 19.7659 25.6892 19.5084 25.6929C18.4543 25.7064 17.4001 25.7002 16.3459 25.6929C15.5504 25.6929 15.2427 25.3754 15.2329 24.5786C15.228 23.1999 15.2247 21.8204 15.2231 20.4401C15.2231 19.6567 15.5271 19.349 16.3067 19.3454C17.3486 19.3454 18.3905 19.3331 19.4312 19.3454C19.7254 19.3454 19.799 19.2608 19.799 18.9702C19.799 17.3435 19.7364 15.7156 19.8345 14.0901C19.9571 11.9485 20.6521 10.0447 22.34 8.6129C23.6185 7.528 25.1397 7.04379 26.7884 6.94327C28.2434 6.85378 29.7034 6.90772 31.1608 6.90772C31.8889 6.90772 32.204 7.23134 32.2089 7.95951C32.217 9.13144 32.217 10.303 32.2089 11.4741C32.2089 12.2096 31.8791 12.5332 31.1314 12.5442C30.2586 12.5565 29.3871 12.5602 28.5143 12.5712C28.1361 12.5803 27.7626 12.6567 27.4111 12.7968C26.5776 13.1155 26.1768 13.7677 26.0897 14.6172C25.934 16.1103 26.0505 17.6083 26.0149 19.1051C26.0076 19.3821 26.1939 19.338 26.3569 19.338H31.2086C32.1807 19.338 32.4834 19.6935 32.3633 20.6595C32.1954 22.0079 32.0422 23.3711 31.8816 24.7269C31.7995 25.4122 31.4955 25.6855 30.8029 25.6868C29.3454 25.6868 27.888 25.6953 26.4293 25.6868C26.1498 25.6868 26.0517 25.7419 26.0517 26.0459C26.0517 30.5751 26.0407 35.1047 26.0186 39.6347C26.0186 39.9436 26.1179 39.9938 26.3962 39.9926" fill="white"/>
<path d="M0 35.3833C0.142192 35.523 0.112773 35.718 0.15445 35.8871L0 35.3833Z" fill="white"/>
<path d="M4.60898 0C4.5624 0.111554 4.45453 0.0735519 4.37241 0.0931658L4.60898 0Z" fill="#FDFDFE"/>
</g>
<defs>
<clipPath id="clip0_345_290">
<rect width="40" height="40" fill="white"/>
</clipPath>
</defs>
</svg>
