<svg width="592" height="353" viewBox="0 0 592 353" fill="none" xmlns="http://www.w3.org/2000/svg">
<path d="M306.917 168.208L145.563 167.771C145.742 133.495 157.14 100.22 178.013 73.0342C183.343 74.4755 188.954 74.5272 194.31 73.1844C199.666 71.8416 204.588 69.1491 208.608 65.3636C218.843 56.6093 229.78 48.7106 241.309 41.7472C246.021 39.1118 249.998 35.3362 252.874 30.7661C255.751 26.196 257.435 20.9774 257.773 15.5878C273.581 10.2947 290.189 7.79088 306.855 8.18818L306.917 168.208ZM250.645 155.473C249.645 152.263 247.582 151.179 244.643 150.262C233.743 146.906 222.843 143.529 212.11 139.652C208.296 138.276 206.107 138.714 203.502 141.736L250.645 155.473ZM301.853 83.7898C301.853 78.5996 301.582 73.3677 301.853 68.1984C302.165 63.6752 300.748 61.2365 296.309 59.5064C284.346 54.9415 272.425 49.7514 260.712 44.5195C259.383 43.7708 257.854 43.4547 256.338 43.6154C254.821 43.776 253.393 44.4053 252.25 45.4158C238.175 55.7267 224.052 65.9333 209.88 76.0358C208.442 76.8504 207.289 78.087 206.578 79.5782C205.866 81.0693 205.629 82.7432 205.899 84.3734C207.288 97.8109 208.435 111.283 209.338 124.79C209.588 128.521 211.63 129.522 214.506 130.439C225.365 133.941 236.244 137.401 247.04 141.111C248.493 141.631 250.061 141.745 251.574 141.44C253.087 141.135 254.488 140.423 255.627 139.381C265.005 132.398 274.071 124.79 284.054 118.87C297.664 110.72 307.042 101.236 301.894 83.8732L301.853 83.7898Z" fill="#1A2023"/>
<path d="M257.773 15.5878C257.435 20.9773 255.751 26.196 252.874 30.7661C249.998 35.3362 246.021 39.1117 241.308 41.7471C229.78 48.7105 218.843 56.6092 208.608 65.3635C204.574 69.1522 199.634 71.8413 194.262 73.1735C188.891 74.5056 183.267 74.4361 177.93 72.9716C197.529 45.6011 225.585 25.4372 257.773 15.5878V15.5878Z" fill="white"/>
<path d="M181.119 167.771C189.851 158.12 195.207 151.804 203.544 141.82C206.149 138.714 208.337 138.276 212.151 139.735C222.885 143.612 233.785 146.989 244.685 150.345C247.623 151.262 249.687 152.43 250.687 155.556C256.085 172.607 249.103 150.845 254.605 167.854" fill="white"/>
<path d="M303.332 83.8732C305.542 102.466 297.664 110.72 284.054 118.891C274.071 124.874 265.005 132.419 255.627 139.402C254.488 140.444 253.087 141.156 251.574 141.461C250.061 141.766 248.493 141.652 247.04 141.132C236.244 137.422 225.365 133.962 214.506 130.46C211.63 129.543 209.588 128.542 209.338 124.811C208.449 111.318 207.302 97.8457 205.899 84.3943C205.629 82.7641 205.866 81.0902 206.578 79.599C207.289 78.1079 208.442 76.8713 209.88 76.0567C224.08 65.9542 238.168 55.7198 252.146 45.3533C253.304 44.3296 254.756 43.6979 256.294 43.5482C257.832 43.3985 259.378 43.7384 260.712 44.5195C272.529 49.8348 284.45 54.9416 296.538 59.6732C298.443 60.2289 300.1 61.4181 301.237 63.0441C302.374 64.6701 302.922 66.6355 302.791 68.6153C302.811 73.7013 303.332 78.683 303.332 83.8732Z" fill="white"/>
<path d="M379.383 244.248L381.467 243.31L379.383 244.248Z" fill="#CDCDCD"/>
<path d="M244.789 167.958C244.247 172.127 243.226 183.154 242.705 187.26C238.906 224.262 222.374 258.795 195.937 284.956C193.257 283.135 190.968 280.796 189.205 278.078C190.059 277.119 190.872 276.119 191.748 275.16C216.278 248.521 228.679 204.081 231.847 167.958" fill="#1A2023"/>
<path d="M145.563 167.771C172.282 167.771 203.919 168.125 230.554 167.771C236.536 167.771 234.243 175.087 233.43 181.111C228.637 217.067 216.32 248.521 191.748 275.16C190.872 276.118 190.06 277.119 189.205 278.078C161.59 248.792 146.793 207.937 145.563 167.771Z" fill="#F28A19"/>
<path d="M305.771 328C283.054 329 230.742 318.015 202.168 290.48C199.674 289.163 197.531 287.269 195.916 284.956C222.376 258.804 238.93 224.27 242.747 187.26C243.226 183.091 243.455 179.172 244.018 175.066C244.129 172.683 244.387 170.31 244.789 167.958C262.984 167.667 295.475 167.958 306.917 167.687" fill="#F28A19"/>
<path d="M306.855 51.8149V100.278C344.369 99.8398 384.155 109.678 417.731 126.333C435.248 136.002 451.586 147.669 466.416 161.101C466.416 171.731 461.269 167.625 449.889 166.666C435.905 153.263 436.238 148.844 419.648 140.09C382.78 118.058 349.329 111.804 306.917 111.971" fill="#1A2023"/>
<path d="M308.647 8.18811C303.666 18.8811 305.917 28.0109 305.854 41.0176C337.658 36.4944 359.167 41.5387 389.324 50.0431C399.745 54.0243 410.166 57.943 420.19 62.7372C424.532 64.7306 428.624 67.2282 432.382 70.1785C437.926 75.7647 440.719 79.6626 446.013 90.4598C444.887 88.1878 447.618 95.1915 439.531 86.4786C428.256 78.8497 416.814 71.5751 403.809 67.1561C369.942 52.0024 334.511 48.3964 297.955 52.6903" fill="#1A2023"/>
<path d="M453.536 229.699C460.494 209.914 463.144 188.871 461.31 167.979C423.441 169.355 383.78 168.125 344.265 168.125" fill="#F7F6F6"/>
<path d="M305.917 307.948C305.542 315.347 305.604 321.163 305.771 327.958C326.612 326.728 328.696 326.29 343.661 322.705C398.265 309.678 432.257 276.348 453.661 227.948C462.748 207.437 465.228 186.947 466.5 166.666C459.393 166.666 457.184 166.312 449.827 166.666" fill="#1A2023"/>
<path d="M307.167 166.916C307.167 170.105 307.167 173.315 307.063 176.525L307.167 166.916ZM306.917 167.687L305.917 307.948C305.917 307.948 433.716 308.99 449.889 166.666L306.917 167.687ZM319.172 296.733C317.196 297.108 315.167 297.108 313.19 296.733C312.023 296.587 312.399 295.316 312.399 294.482C312.399 288.792 312.399 283.08 312.399 277.39C312.399 273.409 315.15 275.139 316.9 274.847C318.651 274.555 320.318 274.847 320.068 277.473C319.818 280.1 320.068 283.31 320.068 286.207C320.068 288.5 320.068 290.793 320.068 293.044C319.818 294.211 320.777 296.212 319.172 296.733ZM375.173 280.058C373.551 281.371 371.781 282.491 369.9 283.393C368.858 283.206 368.629 282.413 368.274 281.809C365.294 276.681 362.376 271.533 359.333 266.447C358.5 265.029 358.708 264.362 360.104 263.508C364.835 260.465 364.794 260.381 367.649 265.342C369.733 269.052 371.984 272.742 373.901 276.535C374.589 277.557 376.423 278.766 375.173 280.058ZM413.813 240.454C413.104 241.955 412.666 244.269 409.853 242.539C405.059 239.475 400.057 236.765 395.264 233.888C394.555 233.451 393.555 233.305 393.472 231.95C394.357 230.067 395.485 228.308 396.827 226.718C397.932 225.676 399.265 227.447 400.412 228.073C404.934 230.595 409.311 233.367 413.917 235.764C417.189 237.39 414.48 238.933 413.813 240.454ZM427.089 187.573C421.149 187.573 415.23 187.573 409.29 187.573C405.872 187.573 407.206 185.03 407.206 183.404C407.206 181.778 406.206 179.61 409.29 179.735C412.375 179.86 415.105 179.735 418.002 179.735H424.421C428.839 179.735 430.403 182.007 429.069 186.28C428.735 187.468 428.006 187.51 427.089 187.51V187.573Z" fill="white"/>
<path d="M334.907 185.968C333.733 184.667 332.965 183.051 332.698 181.319C332.351 178.587 330.997 176.082 328.899 174.297C326.802 172.511 324.113 171.574 321.36 171.669C319.617 171.727 317.912 172.193 316.381 173.029C314.85 173.865 313.536 175.048 312.544 176.484C309.564 180.652 310.627 187.76 312.544 189.303C313.397 190.546 314.502 191.595 315.788 192.381C317.074 193.168 318.511 193.674 320.006 193.868C321.985 194.186 323.83 195.069 325.32 196.411C339.409 207.958 353.532 219.485 367.691 230.991C368.587 231.741 369.275 233.075 371.234 232.554C370.471 230.732 369.352 229.08 367.941 227.698C356.95 213.774 345.939 199.864 334.907 185.968Z" fill="#1A2023"/>
<path d="M319.901 292.94C320.047 290.688 319.901 288.396 319.901 286.103C319.901 283.205 319.714 280.266 319.901 277.369C320.089 274.472 318.693 274.409 316.734 274.743C314.774 275.076 312.148 273.304 312.232 277.286C312.399 282.976 312.232 288.687 312.232 294.378C312.232 295.212 311.857 296.462 313.024 296.629C315 297.004 317.029 297.004 319.005 296.629C320.777 296.212 319.818 294.211 319.901 292.94Z" fill="#1A2023"/>
<path d="M424.442 179.777H418.023C415.126 179.777 412.208 179.777 409.311 179.777C406.414 179.777 407.081 181.861 407.227 183.446C407.373 185.03 405.914 187.614 409.311 187.614C415.251 187.614 421.17 187.614 427.11 187.614C428.027 187.614 428.756 187.614 429.194 186.426C430.423 182.091 428.86 179.777 424.442 179.777Z" fill="#1A2023"/>
<path d="M367.649 265.28C364.794 260.319 364.835 260.402 360.104 263.445C358.708 264.342 358.5 264.967 359.333 266.384C362.376 271.47 365.294 276.619 368.274 281.746C368.629 282.351 368.858 283.143 369.9 283.331C371.781 282.428 373.551 281.309 375.173 279.995C376.423 278.766 374.589 277.557 374.006 276.473C371.984 272.679 369.796 268.99 367.649 265.28Z" fill="#1A2023"/>
<path d="M413.813 235.639C409.207 233.242 404.83 230.47 400.308 227.948C399.161 227.322 397.827 225.551 396.723 226.593C395.38 228.183 394.252 229.942 393.367 231.825C393.367 233.18 394.451 233.325 395.16 233.763C400.057 236.64 405.059 239.349 409.749 242.414C412.562 244.206 413 241.892 413.709 240.329C414.417 238.766 417.189 237.39 413.813 235.639Z" fill="#1A2023"/>
<path d="M306.855 8.18811V40.8925C306.855 40.8925 355.832 29.9911 430.84 68.5318C430.84 68.5318 387.136 8.52162 306.855 8.18811Z" fill="white"/>
<path d="M464.958 160.1C464.958 160.1 405.122 100.59 306.563 100.277V51.8149C306.563 51.8149 376.069 40.3506 443.199 88.9383C443.199 88.9383 461.06 110.116 464.958 160.1Z" fill="white"/>
<path d="M305.5 327.958C394.118 327.958 465.958 256.342 465.958 168C465.958 79.6578 394.118 8.04224 305.5 8.04224C216.882 8.04224 145.042 79.6578 145.042 168C145.042 256.342 216.882 327.958 305.5 327.958Z" stroke="#1A2023" stroke-miterlimit="10"/>
<path d="M306.917 111.971V167.687L450.306 166.708C450.306 166.708 411.416 108.573 306.917 111.971Z" fill="white"/>
<line y1="-1.5" x2="70.3015" y2="-1.5" transform="matrix(0.707107 -0.707107 -0.707107 -0.707107 442 92.7107)" stroke="#FEFEFE" stroke-width="3"/>
<line y1="-1.5" x2="100" y2="-1.5" transform="matrix(1 0 0 -1 491.711 43)" stroke="#FEFEFE" stroke-width="3"/>
<line x1="426.061" y1="274.939" x2="485.061" y2="333.939" stroke="#FEFEFE" stroke-width="3"/>
<line y1="-1.5" x2="100" y2="-1.5" transform="matrix(1 0 0 -1 484 332)" stroke="#FEFEFE" stroke-width="3"/>
<line x1="198.65" y1="50.7714" x2="148.939" y2="1.06066" stroke="#FEFEFE" stroke-width="3"/>
<line x1="150" y1="1.5" y2="1.5" stroke="#FEFEFE" stroke-width="3"/>
<line y1="-1.5" x2="70.3015" y2="-1.5" transform="matrix(-0.707107 0.707107 0.707107 0.707107 220.711 303)" stroke="#FEFEFE" stroke-width="3"/>
<line y1="-1.5" x2="130" y2="-1.5" transform="matrix(-1 0 0 1 171 352.711)" stroke="#FEFEFE" stroke-width="3"/>
</svg>
