<svg width="323" height="322" viewBox="0 0 323 322" fill="none" xmlns="http://www.w3.org/2000/svg">
<path d="M162.917 161.208L1.56311 160.771C1.74218 126.495 13.1397 93.2201 34.0132 66.0342C39.3434 67.4755 44.9539 67.5272 50.3097 66.1844C55.6656 64.8416 60.5882 62.1491 64.6083 58.3636C74.8435 49.6093 85.7803 41.7106 97.3085 34.7472C102.021 32.1118 105.998 28.3362 108.874 23.7661C111.751 19.196 113.435 13.9774 113.773 8.58784C129.581 3.29472 146.189 0.790879 162.855 1.18818L162.917 161.208ZM106.645 148.473C105.645 145.263 103.582 144.179 100.643 143.262C89.7431 139.906 78.843 136.529 68.1097 132.652C64.2957 131.276 62.1074 131.714 59.5022 134.736L106.645 148.473ZM157.853 76.7898C157.853 71.5996 157.582 66.3677 157.853 61.1984C158.165 56.6752 156.748 54.2365 152.309 52.5064C140.346 47.9415 128.425 42.7514 116.712 37.5195C115.383 36.7708 113.854 36.4547 112.338 36.6154C110.821 36.776 109.393 37.4053 108.25 38.4158C94.1753 48.7267 80.0518 58.9333 65.8797 69.0358C64.4422 69.8504 63.2895 71.087 62.5775 72.5782C61.8656 74.0693 61.6287 75.7432 61.899 77.3734C63.2884 90.8109 64.4347 104.283 65.3378 117.79C65.5879 121.521 67.6304 122.522 70.5065 123.439C81.3648 126.941 92.244 130.401 103.04 134.111C104.493 134.631 106.061 134.745 107.574 134.44C109.087 134.135 110.488 133.423 111.627 132.381C121.005 125.398 130.071 117.79 140.054 111.87C153.664 103.72 163.042 94.2363 157.894 76.8732L157.853 76.7898Z" fill="#1A2023"/>
<path d="M113.773 8.58777C113.435 13.9773 111.751 19.196 108.874 23.7661C105.998 28.3362 102.021 32.1117 97.3085 34.7471C85.7802 41.7105 74.8434 49.6092 64.6083 58.3635C60.5736 62.1522 55.6339 64.8413 50.2622 66.1735C44.8906 67.5056 39.2669 67.4361 33.9298 65.9716C53.5289 38.6011 81.5848 18.4372 113.773 8.58777V8.58777Z" fill="white"/>
<path d="M37.1185 160.771C45.8511 151.12 51.2073 144.804 59.5439 134.82C62.149 131.714 64.3374 131.276 68.1514 132.735C78.8847 136.612 89.7847 139.989 100.685 143.345C103.623 144.262 105.687 145.43 106.687 148.556C112.085 165.607 105.103 143.845 110.605 160.854" fill="white"/>
<path d="M159.332 76.8732C161.542 95.4662 153.664 103.72 140.054 111.891C130.071 117.874 121.005 125.419 111.627 132.402C110.488 133.444 109.087 134.156 107.574 134.461C106.061 134.766 104.493 134.652 103.04 134.132C92.244 130.422 81.3648 126.962 70.5065 123.46C67.6303 122.543 65.5879 121.542 65.3378 117.811C64.4485 104.318 63.3023 90.8457 61.899 77.3943C61.6287 75.7641 61.8656 74.0902 62.5775 72.599C63.2895 71.1079 64.4421 69.8713 65.8797 69.0567C80.0796 58.9542 94.1684 48.7198 108.146 38.3533C109.304 37.3296 110.756 36.6979 112.294 36.5482C113.832 36.3985 115.378 36.7384 116.712 37.5195C128.529 42.8348 140.45 47.9416 152.538 52.6732C154.443 53.2289 156.1 54.4181 157.237 56.0441C158.374 57.6701 158.922 59.6355 158.791 61.6153C158.811 66.7013 159.332 71.683 159.332 76.8732Z" fill="white"/>
<path d="M235.383 237.248L237.467 236.31L235.383 237.248Z" fill="#CDCDCD"/>
<path d="M100.789 160.958C100.247 165.127 99.2259 176.154 98.7049 180.26C94.9057 217.262 78.3744 251.795 51.9368 277.956C49.2572 276.135 46.9684 273.796 45.205 271.078C46.0595 270.119 46.8723 269.119 47.7477 268.16C72.278 241.521 84.6786 197.081 87.8465 160.958" fill="#1A2023"/>
<path d="M1.56311 160.771C28.2818 160.771 59.919 161.125 86.5543 160.771C92.5358 160.771 90.2433 168.087 89.4305 174.111C84.6369 210.067 72.3197 241.521 47.7477 268.16C46.8723 269.118 46.0595 270.119 45.205 271.078C17.5901 241.792 2.79275 200.937 1.56311 160.771Z" fill="#F28A19"/>
<path d="M161.771 321C139.054 322 86.7419 311.015 58.1683 283.48C55.6743 282.163 53.5307 280.269 51.9159 277.956C78.3765 251.804 94.9304 217.27 98.7466 180.26C99.2259 176.091 99.4552 172.172 100.018 168.066C100.129 165.683 100.387 163.31 100.789 160.958C118.984 160.667 151.475 160.958 162.917 160.687" fill="#F28A19"/>
<path d="M162.855 44.8149V93.2775C200.369 92.8398 240.155 102.678 273.731 119.333C291.248 129.002 307.586 140.669 322.416 154.101C322.416 164.731 317.269 160.625 305.889 159.666C291.905 146.263 292.238 141.844 275.648 133.09C238.78 111.058 205.329 104.804 162.917 104.971" fill="#1A2023"/>
<path d="M164.647 1.18811C159.666 11.8811 161.917 21.0109 161.854 34.0176C193.658 29.4944 215.167 34.5387 245.324 43.0431C255.745 47.0243 266.166 50.943 276.19 55.7372C280.532 57.7306 284.624 60.2282 288.382 63.1785C293.926 68.7647 296.719 72.6626 302.013 83.4598C300.887 81.1878 303.618 88.1915 295.531 79.4786C284.256 71.8497 272.814 64.5751 259.809 60.1561C225.942 45.0024 190.511 41.3964 153.955 45.6903" fill="#1A2023"/>
<path d="M309.536 222.699C316.494 202.914 319.144 181.871 317.31 160.979C279.441 162.355 239.78 161.125 200.265 161.125" fill="#F7F6F6"/>
<path d="M161.917 300.948C161.542 308.347 161.604 314.163 161.771 320.958C182.612 319.728 184.696 319.29 199.661 315.705C254.265 302.678 288.257 269.348 309.661 220.948C318.748 200.437 321.228 179.947 322.5 159.666C315.393 159.666 313.184 159.312 305.827 159.666" fill="#1A2023"/>
<path d="M163.167 159.916C163.167 163.105 163.167 166.315 163.063 169.525L163.167 159.916ZM162.917 160.687L161.917 300.948C161.917 300.948 289.716 301.99 305.889 159.666L162.917 160.687ZM175.172 289.733C173.196 290.108 171.167 290.108 169.19 289.733C168.023 289.587 168.399 288.316 168.399 287.482C168.399 281.792 168.399 276.08 168.399 270.39C168.399 266.409 171.15 268.139 172.9 267.847C174.651 267.555 176.318 267.847 176.068 270.473C175.818 273.1 176.068 276.31 176.068 279.207C176.068 281.5 176.068 283.793 176.068 286.044C175.818 287.211 176.777 289.212 175.172 289.733ZM231.173 273.058C229.551 274.371 227.781 275.491 225.9 276.393C224.858 276.206 224.629 275.413 224.274 274.809C221.294 269.681 218.376 264.533 215.333 259.447C214.5 258.029 214.708 257.362 216.104 256.508C220.835 253.465 220.794 253.381 223.649 258.342C225.733 262.052 227.984 265.742 229.901 269.535C230.589 270.557 232.423 271.766 231.173 273.058ZM269.813 233.454C269.104 234.955 268.666 237.269 265.853 235.539C261.059 232.475 256.057 229.765 251.264 226.888C250.555 226.451 249.555 226.305 249.472 224.95C250.357 223.067 251.485 221.308 252.827 219.718C253.932 218.676 255.265 220.447 256.412 221.073C260.934 223.595 265.311 226.367 269.917 228.764C273.189 230.39 270.48 231.933 269.813 233.454ZM283.089 180.573C277.149 180.573 271.23 180.573 265.29 180.573C261.872 180.573 263.206 178.03 263.206 176.404C263.206 174.778 262.206 172.61 265.29 172.735C268.375 172.86 271.105 172.735 274.002 172.735H280.421C284.839 172.735 286.403 175.007 285.069 179.28C284.735 180.468 284.006 180.51 283.089 180.51V180.573Z" fill="white"/>
<path d="M190.907 178.968C189.733 177.667 188.965 176.051 188.698 174.319C188.351 171.587 186.997 169.082 184.899 167.297C182.802 165.511 180.113 164.574 177.36 164.669C175.617 164.727 173.912 165.193 172.381 166.029C170.85 166.865 169.536 168.048 168.544 169.484C165.564 173.652 166.627 180.76 168.544 182.303C169.397 183.546 170.502 184.595 171.788 185.381C173.074 186.168 174.511 186.674 176.006 186.868C177.985 187.186 179.83 188.069 181.32 189.411C195.409 200.958 209.532 212.485 223.691 223.991C224.587 224.741 225.275 226.075 227.234 225.554C226.471 223.732 225.352 222.08 223.941 220.698C212.95 206.774 201.939 192.864 190.907 178.968Z" fill="#1A2023"/>
<path d="M175.901 285.94C176.047 283.688 175.901 281.396 175.901 279.103C175.901 276.205 175.714 273.266 175.901 270.369C176.089 267.472 174.693 267.409 172.734 267.743C170.774 268.076 168.148 266.304 168.232 270.286C168.399 275.976 168.232 281.687 168.232 287.378C168.232 288.212 167.857 289.462 169.024 289.629C171 290.004 173.029 290.004 175.005 289.629C176.777 289.212 175.818 287.211 175.901 285.94Z" fill="#1A2023"/>
<path d="M280.442 172.777H274.023C271.126 172.777 268.208 172.777 265.311 172.777C262.414 172.777 263.081 174.861 263.227 176.446C263.373 178.03 261.914 180.614 265.311 180.614C271.251 180.614 277.17 180.614 283.11 180.614C284.027 180.614 284.756 180.614 285.194 179.426C286.423 175.091 284.86 172.777 280.442 172.777Z" fill="#1A2023"/>
<path d="M223.649 258.28C220.794 253.319 220.835 253.402 216.104 256.445C214.708 257.342 214.5 257.967 215.333 259.384C218.376 264.47 221.294 269.619 224.274 274.746C224.629 275.351 224.858 276.143 225.9 276.331C227.781 275.428 229.551 274.309 231.173 272.995C232.423 271.766 230.589 270.557 230.006 269.473C227.984 265.679 225.796 261.99 223.649 258.28Z" fill="#1A2023"/>
<path d="M269.813 228.639C265.207 226.242 260.83 223.47 256.308 220.948C255.161 220.322 253.827 218.551 252.723 219.593C251.38 221.183 250.252 222.942 249.367 224.825C249.367 226.18 250.451 226.325 251.16 226.763C256.057 229.64 261.059 232.349 265.749 235.414C268.562 237.206 269 234.892 269.709 233.329C270.417 231.766 273.189 230.39 269.813 228.639Z" fill="#1A2023"/>
<path d="M162.855 1.18811V33.8925C162.855 33.8925 211.832 22.9911 286.84 61.5318C286.84 61.5318 243.136 1.52162 162.855 1.18811Z" fill="white"/>
<path d="M320.958 153.1C320.958 153.1 261.122 93.5901 162.563 93.2775V44.8149C162.563 44.8149 232.069 33.3506 299.199 81.9383C299.199 81.9383 317.06 103.116 320.958 153.1Z" fill="white"/>
<path d="M161.5 320.958C250.118 320.958 321.958 249.342 321.958 161C321.958 72.6578 250.118 1.04224 161.5 1.04224C72.8815 1.04224 1.04207 72.6578 1.04207 161C1.04207 249.342 72.8815 320.958 161.5 320.958Z" stroke="#1A2023" stroke-miterlimit="10"/>
<path d="M162.917 104.971V160.687L306.306 159.708C306.306 159.708 267.416 101.573 162.917 104.971Z" fill="white"/>
</svg>
