<svg width="40" height="40" viewBox="0 0 40 40" fill="none" xmlns="http://www.w3.org/2000/svg">
<g clip-path="url(#clip0_345_277)">
<path d="M18.353 0H21.5552C21.6001 0.086675 21.6856 0.0710109 21.7639 0.0772765C22.489 0.14405 23.2102 0.24862 23.9244 0.39056C34.5851 2.48434 41.6742 12.9668 39.6618 23.656C38.7622 28.4923 36.1129 32.8274 32.2203 35.8326C28.3276 38.8378 23.4646 40.3025 18.5607 39.9467C14.4964 39.6533 10.8548 38.2613 7.66517 35.7352C3.66837 32.5682 1.21108 28.4677 0.293289 23.4336C0.188916 22.8383 0.188916 22.2254 0 21.6447V18.5192C0.133598 18.1234 0.117942 17.7057 0.175347 17.2985C0.730613 13.3876 2.27325 9.91333 4.87006 6.934C7.98804 3.35561 11.8871 1.14279 16.5672 0.29553C17.1611 0.189014 17.7727 0.18797 18.353 0ZM15.2782 24.7494C14.4252 25.3256 13.4679 25.7293 12.4601 25.9378C11.7947 26.0724 11.1156 26.126 10.4373 26.0975C10.2348 26.0913 10.0678 26.1539 10.0198 26.3649C9.97182 26.5758 10.1086 26.6782 10.2641 26.7617C10.3778 26.8254 10.4895 26.8912 10.6054 26.9518C13.2408 28.3156 16.013 28.6372 18.8968 28.0044C24.5465 26.7648 27.8395 21.6447 27.9512 16.7064C27.9616 16.2479 28.0973 15.9211 28.4501 15.6307C28.9625 15.2071 29.4126 14.7131 29.7871 14.1635C29.8769 14.033 30.0532 13.9046 29.9144 13.7187C29.7756 13.5328 29.6117 13.6706 29.4583 13.7187C29.1118 13.8388 28.7757 13.9996 28.3467 14.0476C28.7517 13.5829 29.0951 13.1412 29.2861 12.6086C29.3487 12.4384 29.5366 12.2483 29.3529 12.0739C29.1692 11.8995 28.9907 12.0896 28.8258 12.1784C28.3293 12.4342 27.8122 12.648 27.28 12.8175C26.9106 12.9376 26.6267 12.8801 26.3094 12.6389C24.8742 11.5445 23.2951 11.3753 21.6888 12.1596C20.1075 12.9313 19.3519 14.2784 19.3539 16.0411C19.3539 16.7095 19.3466 16.7189 18.6807 16.6218L18.6432 16.6155C15.8084 16.1717 13.4391 14.8872 11.5666 12.7015C11.2535 12.335 11.1387 12.3434 10.9404 12.7726C10.1701 14.4058 10.3444 15.9482 11.4111 17.3987C11.4831 17.4958 11.6199 17.5595 11.6094 17.7287C11.3475 17.7162 11.1356 17.5867 10.9122 17.4906C10.5427 17.3319 10.4478 17.3914 10.454 17.8039C10.4712 18.7488 10.8103 19.6596 11.4153 20.3853C11.7973 20.8657 12.2889 21.2124 12.8671 21.5633C12.6584 21.5633 12.5269 21.5706 12.3975 21.5633C11.8234 21.5257 11.7712 21.5977 11.9946 22.1272C12.6062 23.5411 13.6938 24.3828 15.2782 24.7494Z" fill="#1A2023"/>
<path d="M15.2782 24.7493C13.6938 24.3859 12.6062 23.5442 11.9946 22.126C11.766 21.5966 11.8234 21.5245 12.3975 21.5621C12.5269 21.5715 12.6563 21.5621 12.8671 21.5621C12.2889 21.2113 11.7973 20.8646 11.4153 20.3842C10.8103 19.6584 10.4712 18.7477 10.454 17.8027C10.4478 17.3944 10.5427 17.3349 10.9122 17.4894C11.1356 17.5855 11.3475 17.715 11.6094 17.7275C11.6094 17.5584 11.4831 17.4947 11.4111 17.3976C10.3444 15.9471 10.1701 14.4047 10.9404 12.7714C11.1418 12.3422 11.2535 12.3338 11.5666 12.7004C13.4391 14.8861 15.8084 16.1705 18.6431 16.6143L18.6807 16.6206C19.3466 16.7177 19.355 16.7083 19.3539 16.04C19.3539 14.2773 20.1075 12.9301 21.6888 12.1584C23.2951 11.3742 24.8742 11.5433 26.3094 12.6377C26.6225 12.879 26.9106 12.9364 27.28 12.8163C27.8122 12.6469 28.3293 12.4331 28.8258 12.1772C28.9907 12.0916 29.1671 11.9015 29.3529 12.0728C29.5387 12.244 29.3529 12.4372 29.2861 12.6074C29.093 13.14 28.7496 13.5818 28.3467 14.0465C28.7757 13.9984 29.1118 13.8376 29.4583 13.7175C29.6117 13.6643 29.7714 13.5254 29.9144 13.7175C30.0574 13.9097 29.8768 14.0308 29.7871 14.1624C29.4126 14.712 28.9625 15.2059 28.4501 15.6296C28.0973 15.9199 27.9616 16.2468 27.9512 16.7052C27.8395 21.6436 24.5465 26.7637 18.8968 28.0032C16.0129 28.6361 13.2408 28.3165 10.6054 26.9506C10.4895 26.89 10.3778 26.8242 10.2641 26.7605C10.1085 26.6739 9.97182 26.5632 10.0198 26.3637C10.0678 26.1643 10.238 26.0901 10.4373 26.0964C11.1132 26.1232 11.7899 26.0685 12.4528 25.9335C13.4628 25.7272 14.4227 25.3249 15.2782 24.7493Z" fill="white"/>
</g>
<defs>
<clipPath id="clip0_345_277">
<rect width="40" height="40" fill="white"/>
</clipPath>
</defs>
</svg>
